<svg width="11" height="15" viewBox="0 0 11 15" fill="none" xmlns="http://www.w3.org/2000/svg">
<g clip-path="url(#clip0_44_1423)">
<path d="M5.47565 14.9977C4.13187 14.9977 2.78809 15.0041 1.44475 14.9941C0.991749 14.9904 0.635788 14.7446 0.353368 14.3874C0.145796 14.1247 0.0435334 13.8083 0.00175791 13.4718C-0.00607499 13.409 0.0178589 13.3425 0.0178589 13.2774C0.0187292 10.9275 0.0330895 8.57754 0.0104611 6.22809C0.00306339 5.45044 0.487398 4.78284 1.06312 4.59851C1.21325 4.55037 1.37339 4.51552 1.52961 4.51185C2.01351 4.50039 2.49784 4.49901 2.98174 4.5091C3.30419 4.51598 3.48044 4.71406 3.51438 4.98229C3.5505 5.26841 3.41777 5.48208 3.12447 5.59029C3.08052 5.60634 3.03004 5.60588 2.98218 5.60634C2.53048 5.60725 2.07922 5.61046 1.62752 5.60634C1.32073 5.60313 1.05746 5.80304 1.05876 6.19507C1.06703 8.56791 1.06703 10.9403 1.05876 13.3131C1.05746 13.6442 1.27156 13.9087 1.62317 13.9074C4.21281 13.8982 6.80202 13.8991 9.39166 13.9074C9.67278 13.9083 9.95824 13.6529 9.95737 13.3072C9.95302 10.9403 9.95389 8.57341 9.95607 6.20654C9.95607 5.82551 9.70324 5.61413 9.38165 5.60955C8.91951 5.60313 8.45694 5.60496 7.99436 5.60817C7.6693 5.61046 7.47826 5.32572 7.47043 5.05428C7.46172 4.75945 7.70106 4.51093 7.98435 4.50864C8.45781 4.50497 8.93126 4.49764 9.40428 4.50864C10.1288 4.52606 10.7511 4.9745 10.9304 5.73289C10.97 5.90025 10.9965 6.07586 10.997 6.2478C11.0013 8.58625 10.9996 10.9242 11 13.2627C11 14.027 10.6288 14.6208 9.95345 14.9033C9.82378 14.9574 9.678 14.9936 9.53918 14.9941C8.18453 15.0005 6.8303 14.9982 5.47565 14.9982C5.47565 14.9982 5.47565 14.9982 5.47565 14.9977Z" fill="white"/>
<path d="M6.05786 1.90972C6.05525 1.97804 6.05046 2.04682 6.05046 2.11514C6.05046 4.41324 6.04872 6.71088 6.0522 9.00897C6.0522 9.28409 5.95908 9.49271 5.728 9.62156C5.43906 9.7825 5.06787 9.58075 5.02 9.23869C5.00738 9.14836 5.00651 9.0562 5.00651 8.9645C5.00564 6.68382 5.00607 4.40315 5.00607 2.12201C5.00607 2.05507 5.00607 1.98767 5.00607 1.87533C4.93253 1.94411 4.88901 1.98171 4.84941 2.02297C4.42209 2.47232 3.9878 2.91479 3.57135 3.37469C3.37813 3.5879 3.00694 3.61174 2.80938 3.39807C2.62879 3.20229 2.60964 2.82355 2.82983 2.59567C3.57918 1.82123 4.32505 1.0422 5.05525 0.248046C5.33592 -0.0568689 5.64793 -0.094926 5.94384 0.210448C6.46734 0.750584 6.97213 1.31089 7.48867 1.85882C7.69841 2.08121 7.92252 2.28937 8.1314 2.51221C8.24193 2.63051 8.34289 2.75156 8.36073 2.94047C8.39032 3.25272 8.18884 3.50491 7.94384 3.54388C7.73758 3.5769 7.57135 3.50262 7.42513 3.34534C6.98475 2.87032 6.53871 2.40125 6.09485 1.9299C6.08266 1.92256 6.07091 1.91568 6.05873 1.90834L6.05786 1.90972Z" fill="white"/>
</g>
<defs>
<clipPath id="clip0_44_1423">
<rect width="11" height="15" fill="white"/>
</clipPath>
</defs>
</svg>
