<svg width="21" height="25" viewBox="0 0 21 25" fill="none" xmlns="http://www.w3.org/2000/svg">
<g clip-path="url(#clip0_80_304)">
<path d="M10.4756 19.9977C9.13187 19.9977 7.78809 20.0041 6.44475 19.9941C5.99175 19.9904 5.63579 19.7446 5.35337 19.3874C5.1458 19.1247 5.04353 18.8083 5.00176 18.4718C4.99393 18.409 5.01786 18.3425 5.01786 18.2774C5.01873 15.9275 5.03309 13.5775 5.01046 11.2281C5.00306 10.4504 5.4874 9.78284 6.06312 9.59851C6.21325 9.55037 6.37339 9.51552 6.52961 9.51185C7.01351 9.50039 7.49784 9.49901 7.98174 9.5091C8.30419 9.51598 8.48044 9.71406 8.51438 9.98229C8.5505 10.2684 8.41777 10.4821 8.12447 10.5903C8.08052 10.6063 8.03004 10.6059 7.98218 10.6063C7.53048 10.6073 7.07922 10.6105 6.62752 10.6063C6.32073 10.6031 6.05746 10.803 6.05876 11.1951C6.06703 13.5679 6.06703 15.9403 6.05876 18.3131C6.05746 18.6442 6.27156 18.9087 6.62317 18.9074C9.21281 18.8982 11.802 18.8991 14.3917 18.9074C14.6728 18.9083 14.9582 18.6529 14.9574 18.3072C14.953 15.9403 14.9539 13.5734 14.9561 11.2065C14.9561 10.8255 14.7032 10.6141 14.3817 10.6095C13.9195 10.6031 13.4569 10.605 12.9944 10.6082C12.6693 10.6105 12.4783 10.3257 12.4704 10.0543C12.4617 9.75945 12.7011 9.51093 12.9844 9.50864C13.4578 9.50497 13.9313 9.49764 14.4043 9.50864C15.1288 9.52606 15.7511 9.9745 15.9304 10.7329C15.97 10.9002 15.9965 11.0759 15.997 11.2478C16.0013 13.5863 15.9996 15.9242 16 18.2627C16 19.027 15.6288 19.6208 14.9535 19.9033C14.8238 19.9574 14.678 19.9936 14.5392 19.9941C13.1845 20.0005 11.8303 19.9982 10.4756 19.9982C10.4756 19.9982 10.4756 19.9982 10.4756 19.9977Z" fill="white"/>
<path d="M11.0579 6.90972C11.0552 6.97804 11.0505 7.04682 11.0505 7.11514C11.0505 9.41324 11.0487 11.7109 11.0522 14.009C11.0522 14.2841 10.9591 14.4927 10.728 14.6216C10.4391 14.7825 10.0679 14.5807 10.02 14.2387C10.0074 14.1484 10.0065 14.0562 10.0065 13.9645C10.0056 11.6838 10.0061 9.40315 10.0061 7.12201C10.0061 7.05507 10.0061 6.98767 10.0061 6.87533C9.93253 6.94411 9.88901 6.98171 9.84941 7.02297C9.42209 7.47232 8.9878 7.91479 8.57135 8.37469C8.37813 8.5879 8.00694 8.61174 7.80938 8.39807C7.62879 8.20229 7.60964 7.82355 7.82983 7.59567C8.57918 6.82123 9.32505 6.0422 10.0552 5.24805C10.3359 4.94313 10.6479 4.90507 10.9438 5.21045C11.4673 5.75058 11.9721 6.31089 12.4887 6.85882C12.6984 7.08121 12.9225 7.28937 13.1314 7.51221C13.2419 7.63051 13.3429 7.75156 13.3607 7.94047C13.3903 8.25272 13.1888 8.50491 12.9438 8.54388C12.7376 8.5769 12.5713 8.50262 12.4251 8.34534C11.9847 7.87032 11.5387 7.40125 11.0948 6.9299C11.0827 6.92256 11.0709 6.91568 11.0587 6.90834L11.0579 6.90972Z" fill="white"/>
</g>
<defs>
<clipPath id="clip0_80_304">
<rect width="11" height="15" fill="white" transform="translate(5 5)"/>
</clipPath>
</defs>
</svg>
